<svg  viewBox="0 0 343 68" fill="none" xmlns="http://www.w3.org/2000/svg">
<path d="M49.9196 31.9945C41.9957 31.9945 35.6608 31.0804 30.9149 29.2521C26.169 27.4239 23.2664 24.8121 22.207 21.4167H40.3855C40.8516 22.7517 41.8474 23.7383 43.3729 24.3767C44.8983 25.0152 46.9535 25.3344 49.5383 25.3344C52.0383 25.3344 53.9028 25.1168 55.1316 24.6815C56.3605 24.2171 56.9749 23.6658 56.9749 23.0273C56.9749 22.7952 56.8901 22.5775 56.7207 22.3744C56.5511 22.1712 56.2969 21.9826 55.958 21.8085C55.6613 21.6343 55.3011 21.4893 54.8774 21.3732C54.4536 21.2281 53.9451 21.0975 53.3519 20.9814C52.801 20.8653 52.2078 20.7638 51.5722 20.6767C50.9366 20.5606 50.2586 20.459 49.5383 20.372C48.8179 20.2849 48.0552 20.2124 47.2501 20.1543C46.4449 20.0673 45.6398 19.9802 44.8347 19.8932C43.9873 19.8061 43.1186 19.7191 42.2288 19.632C41.3813 19.5449 40.5126 19.4433 39.6227 19.3273C38.7752 19.2112 37.9277 19.0951 37.0803 18.979C36.2328 18.834 35.3853 18.6888 34.5378 18.5438C33.6904 18.3986 32.8641 18.239 32.059 18.0649C31.2962 17.8618 30.5335 17.6441 29.7708 17.412C29.0504 17.1798 28.3513 16.9331 27.6733 16.6719C27.0377 16.3817 26.4444 16.077 25.8936 15.7578C25.3427 15.4096 24.8342 15.0469 24.3681 14.6696C23.9444 14.2923 23.563 13.886 23.224 13.4508C22.9274 12.9864 22.6943 12.4931 22.5248 11.9707C22.3553 11.4483 22.2706 10.8825 22.2706 10.273C22.2706 9.43151 22.4401 8.61894 22.7791 7.8354C23.1604 7.05187 23.6901 6.32632 24.3681 5.65889C25.0885 4.96241 25.9571 4.32397 26.9741 3.74357C28.0335 3.16317 29.2623 2.65533 30.6606 2.22002C32.059 1.75571 33.6057 1.36394 35.3006 1.04472C37.038 0.725502 38.9235 0.47883 40.9575 0.30471C43.0339 0.130591 45.2585 0.0435321 47.6314 0.0435321C55.4283 0.0435321 61.6784 0.986681 66.3819 2.87298C71.0854 4.73025 73.9881 7.32753 75.0898 10.6648H57.2291C56.7631 9.41696 55.746 8.47381 54.1782 7.8354C52.6527 7.16791 50.6612 6.8342 48.2035 6.8342C45.7881 6.8342 44.0508 7.05187 42.9915 7.48714C41.9321 7.8934 41.4024 8.38679 41.4024 8.96714C41.4024 9.22832 41.4872 9.46047 41.6567 9.66366C41.8686 9.86678 42.144 10.0554 42.483 10.2295C42.822 10.3746 43.2246 10.5197 43.6906 10.6648C44.1568 10.8099 44.6864 10.9405 45.2797 11.0566C45.8729 11.1727 46.5085 11.2887 47.1865 11.4048C47.9069 11.4919 48.6484 11.5789 49.4111 11.666C50.2162 11.7531 51.0213 11.8547 51.8265 11.9707C52.674 12.0578 53.5426 12.1449 54.4325 12.2319C55.3223 12.319 56.2333 12.4205 57.1656 12.5366C58.0978 12.6527 59.0089 12.7688 59.8987 12.8848C60.8309 13.0009 61.742 13.146 62.6319 13.3202C63.5216 13.4652 64.3904 13.6393 65.2378 13.8425C66.1277 14.0166 66.9752 14.2198 67.7803 14.4519C68.5854 14.6551 69.3269 14.9017 70.0049 15.1919C70.7252 15.4531 71.382 15.7578 71.9753 16.1061C72.6109 16.4253 73.183 16.788 73.6915 17.1943C74.1999 17.5716 74.6236 17.9924 74.9626 18.4567C75.3016 18.921 75.5559 19.4289 75.7254 19.9802C75.9373 20.5026 76.0432 21.0685 76.0432 21.6779C76.0432 24.696 73.7339 27.1772 69.1151 29.1215C64.4963 31.0368 58.0978 31.9945 49.9196 31.9945ZM93.5567 31.2545V8.61894H74.8698V0.783537H130.994V8.61894H112.244V31.2545H93.5567ZM158.526 31.9945C150.221 31.9945 143.759 30.7611 139.14 28.2944C134.563 25.7987 132.276 22.2873 132.276 17.7602V0.783537H151.026V18.3696C151.026 19.9657 151.746 21.1991 153.187 22.0697C154.628 22.9402 156.513 23.3756 158.844 23.3756C161.217 23.3756 163.123 22.9402 164.564 22.0697C166.005 21.1991 166.726 19.9657 166.726 18.3696V0.783537H185.031V17.7602C185.031 22.2873 182.721 25.7987 178.103 28.2944C173.484 30.7611 166.959 31.9945 158.526 31.9945ZM187.308 31.2545V0.783537H213.432C215.508 0.783537 217.479 0.870598 219.344 1.04472C221.25 1.21884 223.052 1.48002 224.746 1.82825C226.441 2.14747 228.009 2.55376 229.449 3.0471C230.932 3.54043 232.268 4.10632 233.454 4.74476C234.682 5.3832 235.763 6.10871 236.696 6.92128C237.628 7.70481 238.412 8.57537 239.047 9.53307C239.726 10.4617 240.234 11.4774 240.573 12.5801C240.912 13.6539 241.081 14.8002 241.081 16.019C241.081 17.2379 240.912 18.3986 240.573 19.5014C240.234 20.5751 239.726 21.5908 239.047 22.5485C238.412 23.4771 237.606 24.3477 236.632 25.1603C235.7 25.9438 234.619 26.6548 233.39 27.2933C232.204 27.9317 230.869 28.4976 229.386 28.9909C227.945 29.4843 226.378 29.9051 224.682 30.2533C222.988 30.5725 221.187 30.8192 219.28 30.9933C217.415 31.1674 215.445 31.2545 213.369 31.2545H187.308ZM212.034 8.92363H205.996V23.245H212.034C215.085 23.245 217.479 22.6936 219.216 21.5908C220.996 20.459 221.886 18.6308 221.886 16.1061C221.886 13.5814 220.996 11.7531 219.216 10.6213C217.479 9.4895 215.085 8.92363 212.034 8.92363ZM242.71 31.2545V0.783537H261.333V31.2545H242.71ZM291.936 32.038C290.029 32.038 288.186 31.9655 286.406 31.8203C284.627 31.6753 282.931 31.4721 281.321 31.211C279.712 30.9207 278.186 30.5725 276.745 30.1662C275.304 29.7309 273.97 29.2376 272.74 28.6862C271.512 28.1348 270.389 27.5254 269.372 26.8579C268.355 26.1905 267.444 25.465 266.639 24.6815C265.876 23.8689 265.22 23.0128 264.668 22.1132C264.117 21.2135 263.694 20.2559 263.397 19.2402C263.143 18.2245 263.016 17.1508 263.016 16.019C263.016 14.8872 263.143 13.8135 263.397 12.7978C263.694 11.7821 264.117 10.8244 264.668 9.92484C265.22 9.02519 265.876 8.1836 266.639 7.40006C267.444 6.5875 268.355 5.84751 269.372 5.18006C270.389 4.5126 271.512 3.90318 272.74 3.3518C273.97 2.80042 275.304 2.3216 276.745 1.91532C278.186 1.48002 279.712 1.13178 281.321 0.870599C282.931 0.580399 284.627 0.36275 286.406 0.217649C288.186 0.0725496 290.029 0 291.936 0C293.843 0 295.686 0.0725496 297.466 0.217649C299.246 0.36275 300.92 0.580399 302.487 0.870599C304.097 1.13178 305.623 1.48002 307.063 1.91532C308.504 2.3216 309.839 2.80042 311.068 3.3518C312.297 3.90318 313.42 4.5126 314.437 5.18006C315.454 5.84751 316.344 6.5875 317.106 7.40006C317.911 8.1836 318.589 9.02519 319.14 9.92484C319.691 10.8244 320.094 11.7821 320.348 12.7978C320.645 13.8135 320.793 14.8872 320.793 16.019C320.793 17.1508 320.645 18.2245 320.348 19.2402C320.094 20.2559 319.691 21.2135 319.14 22.1132C318.589 23.0128 317.911 23.8689 317.106 24.6815C316.344 25.465 315.454 26.1905 314.437 26.8579C313.42 27.5254 312.297 28.1348 311.068 28.6862C309.839 29.2376 308.504 29.7309 307.063 30.1662C305.623 30.5725 304.097 30.9207 302.487 31.211C300.92 31.4721 299.246 31.6753 297.466 31.8203C295.686 31.9655 293.843 32.038 291.936 32.038ZM291.936 23.7238C294.732 23.7238 297.021 23.0998 298.801 21.852C300.58 20.6042 301.47 18.6743 301.47 16.0626C301.47 13.4217 300.58 11.4919 298.801 10.273C297.021 9.02519 294.732 8.40127 291.936 8.40127C289.139 8.40127 286.851 9.02519 285.072 10.273C283.291 11.4919 282.402 13.4217 282.402 16.0626C282.402 18.6743 283.291 20.6042 285.072 21.852C286.851 23.0998 289.139 23.7238 291.936 23.7238Z" fill="#FFFEF4"/>
<path d="M0 67.2925V36.8216H47.2254V44.5264H18.6866V49.1841H39.9162V56.323H18.6866V67.2925H0ZM48.9441 67.2925V36.8216H83.7123C89.6443 36.8216 94.1569 37.6052 97.2501 39.1722C100.343 40.7103 101.89 42.8288 101.89 45.5276C101.89 47.2108 101.233 48.7053 99.9204 50.0112C98.6489 51.3171 96.8057 52.3328 94.3899 53.0583C96.6784 53.4645 98.3308 54.161 99.3478 55.1477C100.407 56.1053 100.958 57.3677 101 58.9348C101.043 60.5599 101.17 62.098 101.382 63.549C101.636 65 102.081 66.2478 102.717 67.2925H83.7123C83.2034 66.451 82.8647 65.3772 82.6953 64.0713C82.5681 62.7364 82.4829 61.1548 82.4408 59.3266C82.4408 58.3689 82.1443 57.687 81.5511 57.2807C80.9579 56.8744 80.025 56.6713 78.7544 56.6713H67.6307V67.2925H48.9441ZM78.6272 44.1347H67.6307V49.9676H78.6272C80.1102 49.9676 81.275 49.721 82.1227 49.2277C83.0125 48.7053 83.4579 47.9798 83.4579 47.0512C83.4579 46.0935 83.0125 45.368 82.1227 44.8746C81.275 44.3813 80.1102 44.1347 78.6272 44.1347ZM103.847 67.2925V36.8216H150.946V44.3088H122.407V48.5311H143.51V55.4089H122.407V60.0666H150.946V67.2925H103.847ZM152.917 67.2925V36.8216H171.541V67.2925H152.917ZM213.139 67.2925L213.076 62.8525C211.254 64.4486 208.923 65.6964 206.085 66.5961C203.245 67.4957 200.024 67.9455 196.423 67.9455C194.686 67.9455 193.033 67.8439 191.465 67.6408C189.897 67.4666 188.393 67.2055 186.953 66.8573C185.554 66.509 184.24 66.0737 183.012 65.5514C181.782 65.029 180.66 64.4341 179.643 63.7666C178.626 63.0702 177.715 62.3157 176.91 61.5031C176.105 60.6615 175.427 59.7619 174.875 58.8042C174.367 57.8466 173.965 56.8309 173.669 55.7571C173.372 54.6544 173.223 53.4936 173.223 52.2747C173.223 50.9688 173.393 49.75 173.732 48.6182C174.071 47.4574 174.558 46.3837 175.194 45.397C175.872 44.3813 176.677 43.4527 177.608 42.6111C178.583 41.7405 179.686 40.957 180.914 40.2605C182.143 39.564 183.499 38.9546 184.982 38.4322C186.507 37.9099 188.139 37.4746 189.877 37.1263C191.613 36.7781 193.456 36.5169 195.406 36.3428C197.355 36.1397 199.411 36.0381 201.571 36.0381C203.521 36.0381 205.385 36.1106 207.164 36.2557C208.945 36.4008 210.618 36.6185 212.186 36.9087C213.796 37.1989 215.301 37.5471 216.699 37.9534C218.139 38.3597 219.453 38.8385 220.639 39.3899C221.869 39.9413 222.97 40.5507 223.945 41.2181C224.962 41.8566 225.852 42.5676 226.614 43.3511C227.377 44.1056 228.013 44.9182 228.521 45.7888C229.072 46.6594 229.475 47.5735 229.729 48.5311H211.36C210.681 47.1382 209.495 46.0645 207.801 45.31C206.148 44.5264 204.304 44.1347 202.271 44.1347C199.347 44.1347 196.973 44.8166 195.152 46.1805C193.372 47.5155 192.482 49.5904 192.482 52.4053C192.482 55.1912 193.394 57.2516 195.215 58.5865C197.037 59.9215 199.411 60.589 202.335 60.589C204.411 60.589 206.296 60.2262 207.991 59.5007C209.728 58.7462 211 57.6434 211.805 56.1924H202.144V50.6206H229.729V67.2925H213.139ZM232.122 67.2925V36.8216H250.808V47.8347H266.698V36.8216H285.386V67.2925H266.698V55.7136H250.808V67.2925H232.122ZM305.562 67.2925V44.657H286.875V36.8216H343V44.657H324.249V67.2925H305.562Z" fill="#FFFEF4"/>
</svg>
