<svg viewBox="0 0 1392 68" fill="none" xmlns="http://www.w3.org/2000/svg">
<path d="M58.8194 67.9077C42.0011 67.9077 28.5553 65.9674 18.4822 62.087C8.4092 58.2066 2.24845 52.6631 0 45.4566H38.5834C39.5727 48.2899 41.6863 50.3841 44.9241 51.7391C48.1618 53.0942 52.5238 53.7718 58.01 53.7718C63.3162 53.7718 67.2737 53.3098 69.8817 52.3859C72.49 51.4003 73.7941 50.2301 73.7941 48.875C73.7941 48.3823 73.6142 47.9203 73.2545 47.4891C72.8947 47.058 72.3551 46.6576 71.6356 46.2881C71.0059 45.9184 70.2416 45.6105 69.3422 45.3641C68.4428 45.0562 67.3634 44.779 66.1044 44.5326C64.9351 44.2863 63.6761 44.0707 62.3271 43.8859C60.9779 43.6394 59.5389 43.4239 58.01 43.2392C56.481 43.0544 54.8622 42.9004 53.1533 42.7772C51.4445 42.5924 49.7356 42.4077 48.0268 42.2228C46.2282 42.038 44.3843 41.8533 42.4957 41.6685C40.6969 41.4837 38.8533 41.2681 36.9645 41.0218C35.1657 40.7754 33.3669 40.529 31.5683 40.2826C29.7695 39.9747 27.9707 39.6667 26.1719 39.3587C24.3733 39.0507 22.6193 38.7119 20.9105 38.3424C19.2916 37.9113 17.6728 37.4493 16.0539 36.9565C14.525 36.4638 13.041 35.9402 11.602 35.3858C10.2529 34.7699 8.9938 34.1232 7.8246 33.4456C6.6554 32.7066 5.57616 31.9367 4.58683 31.1359C3.68745 30.3351 2.87801 29.4728 2.15851 28.549C1.52895 27.5634 1.03429 26.5163 0.674533 25.4076C0.314783 24.2989 0.134906 23.0978 0.134906 21.8043C0.134906 20.0182 0.494659 18.2935 1.21416 16.6305C2.02361 14.9674 3.14783 13.4275 4.58683 12.0109C6.11578 10.5326 7.9595 9.17754 10.118 7.94565C12.3665 6.71377 14.9747 5.63588 17.9426 4.71195C20.9105 3.72645 24.1933 2.89493 27.7908 2.2174C31.4783 1.53986 35.4805 1.01631 39.7975 0.646741C44.2046 0.277178 48.9262 0.092396 53.9628 0.092396C70.5114 0.092396 83.7773 2.09421 93.7602 6.09784C103.743 10.0399 109.904 15.5525 112.243 22.6358H74.3336C73.3445 19.9873 71.1858 17.9855 67.8581 16.6305C64.6203 15.2137 60.3934 14.5054 55.1769 14.5054C50.0504 14.5054 46.363 14.9674 44.1146 15.8913C41.866 16.7536 40.7418 17.8008 40.7418 19.0326C40.7418 19.5869 40.9217 20.0797 41.2816 20.5109C41.7312 20.942 42.3158 21.3424 43.0353 21.712C43.7548 22.0199 44.6093 22.3279 45.5985 22.6358C46.5878 22.9439 47.712 23.221 48.9713 23.4674C50.2303 23.7138 51.5793 23.9601 53.0185 24.2065C54.5474 24.3914 56.1212 24.576 57.7401 24.7609C59.4489 24.9457 61.1578 25.1613 62.8666 25.4076C64.6654 25.5924 66.5091 25.7772 68.3979 25.9619C70.2864 26.1467 72.2201 26.3623 74.1988 26.6087C76.1775 26.855 78.1112 27.1015 79.9997 27.3478C81.9785 27.5942 83.9121 27.9021 85.8009 28.2718C87.6894 28.5797 89.5333 28.9492 91.3319 29.3805C93.2207 29.75 95.0195 30.1811 96.7283 30.6739C98.4372 31.1051 100.011 31.6286 101.45 32.2446C102.979 32.7989 104.373 33.4456 105.632 34.1848C106.981 34.8624 108.195 35.6323 109.275 36.4945C110.354 37.2953 111.253 38.1884 111.973 39.1739C112.692 40.1594 113.232 41.2374 113.592 42.4077C114.041 43.5164 114.266 44.7174 114.266 46.0109C114.266 52.4167 109.365 57.683 99.5614 61.8098C89.7581 65.875 76.1775 67.9077 58.8194 67.9077ZM151.438 66.337V18.2935H111.776V1.66304H230.898V18.2935H191.101V66.337H151.438ZM289.334 67.9077C271.707 67.9077 257.991 65.2899 248.188 60.0543C238.474 54.7573 233.618 47.3043 233.618 37.6957V1.66304H273.415V38.9891C273.415 42.3768 274.944 44.9946 278.002 46.8424C281.061 48.6902 285.062 49.6142 290.009 49.6142C295.045 49.6142 299.092 48.6902 302.151 46.8424C305.209 44.9946 306.738 42.3768 306.738 38.9891V1.66304H345.59V37.6957C345.59 47.3043 340.688 54.7573 330.886 60.0543C321.082 65.2899 307.232 67.9077 289.334 67.9077ZM350.424 66.337V1.66304H405.872C410.278 1.66304 414.461 1.84783 418.418 2.2174C422.466 2.58696 426.288 3.14131 429.885 3.88043C433.483 4.55797 436.81 5.4203 439.868 6.4674C443.015 7.5145 445.849 8.71558 448.367 10.0707C450.975 11.4257 453.268 12.9656 455.248 14.6903C457.226 16.3533 458.89 18.201 460.239 20.2337C461.679 22.2047 462.757 24.3605 463.478 26.7011C464.197 28.9801 464.556 31.413 464.556 34C464.556 36.587 464.197 39.0507 463.478 41.3913C462.757 43.6703 461.679 45.8261 460.239 47.8587C458.89 49.8297 457.181 51.6775 455.113 53.4021C453.133 55.0652 450.84 56.5743 448.232 57.9294C445.714 59.2844 442.88 60.4856 439.733 61.5327C436.675 62.5797 433.348 63.4729 429.75 64.2119C426.153 64.8895 422.331 65.4131 418.283 65.7826C414.325 66.1521 410.143 66.337 405.737 66.337H350.424ZM402.903 18.9402H390.088V49.337H402.903C409.379 49.337 414.461 48.1667 418.148 45.8261C421.925 43.4239 423.814 39.5434 423.814 34.1848C423.814 28.8261 421.925 24.9457 418.148 22.5435C414.461 20.1413 409.379 18.9402 402.903 18.9402ZM468.014 66.337V1.66304H507.541V66.337H468.014ZM572.494 68C568.447 68 564.534 67.846 560.757 67.538C556.98 67.2301 553.382 66.799 549.964 66.2446C546.548 65.6287 543.309 64.8895 540.251 64.0272C537.193 63.1032 534.361 62.0561 531.752 60.8858C529.144 59.7155 526.761 58.4221 524.602 57.0054C522.444 55.5888 520.51 54.049 518.802 52.3859C517.183 50.6613 515.789 48.8443 514.619 46.9348C513.45 45.0253 512.55 42.9927 511.921 40.837C511.382 38.6812 511.112 36.4022 511.112 34C511.112 31.5979 511.382 29.3189 511.921 27.1631C512.55 25.0073 513.45 22.9746 514.619 21.0653C515.789 19.1558 517.183 17.3695 518.802 15.7065C520.51 13.9818 522.444 12.4112 524.602 10.9946C526.761 9.57791 529.144 8.28442 531.752 7.11413C534.361 5.94384 537.193 4.92754 540.251 4.06522C543.309 3.14131 546.548 2.40218 549.964 1.84783C553.382 1.23188 556.98 0.76993 560.757 0.461956C564.534 0.153985 568.447 0 572.494 0C576.541 0 580.453 0.153985 584.232 0.461956C588.009 0.76993 591.562 1.23188 594.888 1.84783C598.306 2.40218 601.545 3.14131 604.601 4.06522C607.66 4.92754 610.493 5.94384 613.101 7.11413C615.71 8.28442 618.093 9.57791 620.252 10.9946C622.411 12.4112 624.299 13.9818 625.918 15.7065C627.626 17.3695 629.065 19.1558 630.235 21.0653C631.405 22.9746 632.259 25.0073 632.799 27.1631C633.428 29.3189 633.742 31.5979 633.742 34C633.742 36.4022 633.428 38.6812 632.799 40.837C632.259 42.9927 631.405 45.0253 630.235 46.9348C629.065 48.8443 627.626 50.6613 625.918 52.3859C624.299 54.049 622.411 55.5888 620.252 57.0054C618.093 58.4221 615.71 59.7155 613.101 60.8858C610.493 62.0561 607.66 63.1032 604.601 64.0272C601.545 64.8895 598.306 65.6287 594.888 66.2446C591.562 66.799 588.009 67.2301 584.232 67.538C580.453 67.846 576.541 68 572.494 68ZM572.494 50.3532C578.43 50.3532 583.287 49.029 587.064 46.3804C590.841 43.7319 592.73 39.6359 592.73 34.0924C592.73 28.4874 590.841 24.3914 587.064 21.8043C583.287 19.1558 578.43 17.8315 572.494 17.8315C566.558 17.8315 561.702 19.1558 557.925 21.8043C554.146 24.3914 552.258 28.4874 552.258 34.0924C552.258 39.6359 554.146 43.7319 557.925 46.3804C561.702 49.029 566.558 50.3532 572.494 50.3532ZM663.99 66.337V1.66304H764.224V18.0164H703.651V27.9021H748.711V43.0544H703.651V66.337H663.99ZM767.872 66.337V1.66304H841.667C854.258 1.66304 863.836 3.32608 870.401 6.65217C876.966 9.91666 880.249 14.4131 880.249 20.1413C880.249 23.7138 878.855 26.8859 876.069 29.6577C873.37 32.4294 869.458 34.5852 864.33 36.125C869.187 36.9873 872.695 38.4656 874.853 40.5598C877.101 42.5924 878.271 45.2717 878.36 48.5978C878.452 52.0471 878.722 55.3116 879.17 58.3913C879.711 61.471 880.654 64.1196 882.004 66.337H841.667C840.587 64.5507 839.868 62.2717 839.509 59.5C839.239 56.6666 839.058 53.3098 838.968 49.4294C838.968 47.3968 838.339 45.9493 837.08 45.0869C835.821 44.2247 833.841 43.7935 831.144 43.7935H807.534V66.337H767.872ZM830.874 17.1848H807.534V29.5652H830.874C834.022 29.5652 836.494 29.0417 838.293 27.9946C840.182 26.8859 841.127 25.346 841.127 23.375C841.127 21.3424 840.182 19.8025 838.293 18.7554C836.494 17.7083 834.022 17.1848 830.874 17.1848ZM884.403 66.337V1.66304H984.369V17.5544H923.796V26.5163H968.586V41.1141H923.796V51H984.369V66.337H884.403ZM988.553 66.337V1.66304H1028.08V66.337H988.553ZM1116.37 66.337L1116.24 56.913C1112.37 60.3007 1107.42 62.9493 1101.4 64.8587C1095.37 66.7681 1088.54 67.7228 1080.89 67.7228C1077.21 67.7228 1073.7 67.5073 1070.37 67.0761C1067.04 66.7065 1063.85 66.1521 1060.79 65.4131C1057.82 64.6739 1055.04 63.75 1052.43 62.6414C1049.82 61.5327 1047.44 60.2699 1045.28 58.8533C1043.12 57.375 1041.19 55.7736 1039.48 54.049C1037.77 52.2627 1036.33 50.3532 1035.16 48.3207C1034.08 46.2881 1033.23 44.1323 1032.6 41.8533C1031.97 39.5127 1031.65 37.0489 1031.65 34.462C1031.65 31.6902 1032.01 29.1033 1032.73 26.7011C1033.45 24.2373 1034.49 21.9584 1035.83 19.8641C1037.27 17.7083 1038.98 15.7374 1040.96 13.9511C1043.03 12.1033 1045.37 10.4402 1047.98 8.96196C1050.58 7.48369 1053.46 6.19022 1056.61 5.08153C1059.85 3.97283 1063.31 3.04891 1067 2.30979C1070.68 1.57065 1074.6 1.01631 1078.74 0.646741C1082.87 0.215581 1087.23 0 1091.82 0C1095.96 0 1099.91 0.153985 1103.69 0.461956C1107.47 0.76993 1111.02 1.23188 1114.35 1.84783C1117.77 2.46377 1120.96 3.20291 1123.93 4.06522C1126.99 4.92754 1129.77 5.94384 1132.29 7.11413C1134.9 8.28442 1137.24 9.57791 1139.31 10.9946C1141.47 12.3496 1143.36 13.8587 1144.97 15.5218C1146.59 17.1232 1147.94 18.8479 1149.02 20.6956C1150.19 22.5435 1151.04 24.4837 1151.58 26.5163H1112.6C1111.16 23.5598 1108.64 21.2808 1105.04 19.6794C1101.53 18.0164 1097.62 17.1848 1093.31 17.1848C1087.1 17.1848 1082.06 18.6323 1078.19 21.5271C1074.42 24.3605 1072.53 28.7645 1072.53 34.7391C1072.53 40.6521 1074.46 45.0253 1078.33 47.8587C1082.2 50.692 1087.23 52.1087 1093.44 52.1087C1097.85 52.1087 1101.85 51.3388 1105.45 49.7989C1109.13 48.1974 1111.83 45.8568 1113.54 42.7772H1093.04V30.951H1151.58V66.337H1116.37ZM1156.66 66.337V1.66304H1196.32V25.038H1230.05V1.66304H1269.71V66.337H1230.05V41.7608H1196.32V66.337H1156.66ZM1312.54 66.337V18.2935H1272.88V1.66304H1392V18.2935H1352.2V66.337H1312.54Z" fill="#FFFEF4"/>
</svg>
