<svg viewBox="0 0 24 24" fill="none" xmlns="http://www.w3.org/2000/svg">
<path d="M16.3017 13.4013C16.0452 12.8617 15.6648 12.4105 15.1341 12.0124C14.7448 11.7205 14.3025 11.4728 13.7275 11.2428C13.0552 10.9597 12.3741 10.7474 11.7902 10.5705C11.5337 10.4909 11.2506 10.4024 10.9056 10.2874C10.7287 10.2255 10.6491 10.137 10.6314 9.99551C10.6225 9.96012 10.6225 9.92474 10.6225 9.88051C10.6225 9.15512 10.6225 8.43858 10.6225 7.7132C10.6225 7.66897 10.6314 7.61589 10.6402 7.55397C10.6579 7.4832 10.6933 7.46551 10.7198 7.44781C10.7641 7.43012 10.8171 7.43012 10.8967 7.44781C11.1267 7.49204 11.3567 7.58051 11.5956 7.69551C11.8344 7.81935 12.0733 7.96089 12.3033 8.10243C12.3829 8.15551 12.4714 8.20858 12.5598 8.25281C12.7633 8.37666 13.0375 8.52704 13.3471 8.6332C13.7541 8.77474 14.1344 8.82781 14.5148 8.79243C14.7979 8.76589 15.0721 8.72166 15.3198 8.65089C15.4437 8.61551 15.5764 8.57128 15.6914 8.48281C15.824 8.37666 15.8771 8.20858 15.824 8.04051C15.771 7.88128 15.6294 7.76628 15.4614 7.75743C15.4525 7.75743 15.4437 7.75743 15.426 7.75743C15.3198 7.75743 15.2225 7.78397 15.1429 7.80166C14.8864 7.87243 14.6564 7.91666 14.4352 7.92551C14.2229 7.93435 14.0017 7.91666 13.7717 7.85474C13.4975 7.78397 13.2498 7.65128 13.0375 7.53628C12.896 7.45666 12.7633 7.3682 12.6217 7.28858C12.4979 7.22666 12.3829 7.14704 12.2591 7.07628C11.9937 6.91704 11.746 6.80204 11.5071 6.72243C11.1975 6.61628 10.8967 6.54551 10.6048 6.51897C10.4633 6.51012 10.3129 6.50128 10.1537 6.52781C9.95905 6.5632 9.8352 6.68704 9.79982 6.88166C9.78213 6.97012 9.77328 7.05858 9.77328 7.14704C9.77328 7.60704 9.77328 8.0582 9.77328 8.5182V9.4382C9.77328 9.52666 9.77328 9.61512 9.74674 9.68589C9.72905 9.73897 9.71136 9.75666 9.65828 9.75666C9.59636 9.75666 9.54328 9.73897 9.47251 9.70358C9.01251 9.47358 8.64097 9.21705 8.34021 8.89858C8.13674 8.67743 7.96867 8.43858 7.86251 8.1732C7.75636 7.92551 7.68559 7.66012 7.6502 7.35935C7.61482 7.05858 7.61482 6.76666 7.6679 6.49243C7.72097 6.15628 7.82713 5.83781 7.9952 5.53705C8.15444 5.24512 8.3579 4.98858 8.60559 4.75858C8.79136 4.59051 9.01251 4.44897 9.24251 4.33397C9.54328 4.19243 9.87059 4.11281 10.2156 4.10397C10.3571 4.10397 10.5075 4.12166 10.6491 4.13051C10.8348 4.1482 11.0383 4.20128 11.2329 4.27204C11.5337 4.3782 11.8079 4.53743 12.0644 4.68781C12.1706 4.74974 12.2767 4.81166 12.3829 4.88243C12.5244 4.97089 12.6748 5.05935 12.8252 5.13897C13.3029 5.40435 13.7717 5.53705 14.2494 5.51051C14.506 5.50166 14.7271 5.45743 14.9217 5.37781C15.0014 5.35128 15.0987 5.30705 15.1606 5.21858C15.249 5.09474 15.2667 4.94435 15.196 4.80281C15.1341 4.66128 15.0102 4.57281 14.851 4.56397C14.7271 4.55512 14.6121 4.58166 14.5148 4.6082C14.3467 4.65243 14.1787 4.66128 14.0106 4.64358C13.7541 4.61704 13.5064 4.53743 13.2144 4.3782C13.0021 4.2632 12.7898 4.13051 12.6041 4.01551C12.2414 3.79435 11.9583 3.64397 11.6664 3.52012C11.3125 3.37858 10.9233 3.29012 10.4544 3.24589C10.2421 3.2282 10.021 3.24589 9.84405 3.27243C9.33982 3.33435 8.85328 3.52897 8.40213 3.83858C8.11905 4.02435 7.87136 4.25435 7.6679 4.51089C7.41136 4.82051 7.23444 5.11243 7.10174 5.4132C6.87174 5.94397 6.76559 6.45704 6.77444 6.97897C6.77444 7.31512 6.81867 7.62474 6.88944 7.93435C7.05751 8.64204 7.42021 9.24358 7.97751 9.74781C8.34021 10.0663 8.77367 10.3494 9.31328 10.597C9.87944 10.8624 10.4898 11.0659 10.9852 11.2251C11.2329 11.3047 11.4717 11.3844 11.7194 11.464C12.0644 11.5701 12.4006 11.6851 12.7456 11.7913C13.2587 11.9682 13.701 12.154 14.099 12.3751C14.5148 12.6051 14.8244 12.844 15.081 13.1094C15.3464 13.3924 15.5321 13.702 15.6648 14.0736C15.7621 14.3567 15.824 14.6751 15.8417 15.0378C15.8506 15.2678 15.8417 15.4801 15.8064 15.6659C15.7179 16.2144 15.479 16.7097 15.0898 17.1432C14.8333 17.4263 14.5237 17.6563 14.161 17.8244C13.7187 18.0367 13.2321 18.1517 12.7191 18.1517C12.6837 18.1428 12.6217 18.1517 12.551 18.1428L12.4979 18.134C12.3741 18.1251 12.2502 18.1163 12.1264 18.0986C11.8964 18.072 11.6841 18.0013 11.4806 17.9394C11.2417 17.8597 11.0294 17.7713 10.8348 17.6563C10.6756 17.5678 10.6048 17.4351 10.6048 17.2317C10.6048 16.7894 10.6048 16.347 10.6048 15.9136V14.9228C10.6048 14.8697 10.6137 14.8167 10.6225 14.7724C10.6402 14.684 10.6933 14.6397 10.7641 14.622C10.8171 14.6132 10.8614 14.6044 10.9144 14.6044C11.0737 14.6044 11.2329 14.6044 11.401 14.6044H11.9583C12.091 14.6044 12.2237 14.6044 12.3652 14.6044C12.7367 14.6044 13.1171 14.622 13.4798 14.5867C13.5417 14.5867 13.6125 14.569 13.6833 14.5513C13.8425 14.4982 13.9487 14.3567 13.9487 14.1797C13.9575 14.0028 13.8691 13.8613 13.7098 13.7905C13.5948 13.7463 13.4798 13.7374 13.3914 13.7374H11.1621C11.0471 13.7374 10.941 13.7374 10.8348 13.7286C10.7021 13.7197 10.6491 13.6755 10.6225 13.5517C10.6137 13.4986 10.6048 13.4455 10.6048 13.3924V12.897C10.6048 12.6228 10.6048 12.3486 10.6048 12.0744C10.6048 11.9594 10.596 11.862 10.5783 11.7647C10.5429 11.5701 10.3837 11.4286 10.1891 11.4286C9.99444 11.4286 9.84405 11.5613 9.79097 11.7559C9.77328 11.8267 9.76444 11.8974 9.76444 11.977C9.72905 12.8705 9.72905 13.7817 9.72905 14.684C9.72905 14.7547 9.72905 14.8255 9.72905 14.8963C9.72905 14.967 9.72905 15.0467 9.72905 15.1174C9.72905 15.3386 9.72905 15.5597 9.7202 15.772L9.71136 16.2851C9.71136 16.5151 9.71136 16.7451 9.71136 16.9751C9.71136 17.1344 9.71136 17.2936 9.7202 17.4528C9.7202 17.5944 9.72905 17.7359 9.72905 17.8774C9.72905 18.1163 9.72905 18.3551 9.72905 18.594V19.2574C9.72905 19.5582 9.72905 19.8678 9.72905 20.1686C9.72905 20.257 9.7379 20.3367 9.76444 20.4251C9.79097 20.5401 9.87059 20.6286 9.98559 20.6817C10.0387 20.7082 10.0917 20.717 10.1537 20.717C10.2156 20.717 10.2864 20.6994 10.3394 20.6728C10.4544 20.6109 10.5252 20.5047 10.5517 20.372C10.5694 20.2747 10.5783 20.1597 10.5783 20.0359C10.5783 19.8059 10.5783 19.5759 10.5783 19.3547C10.5783 19.1955 10.5783 19.0274 10.5783 18.8682C10.5783 18.8151 10.5871 18.762 10.596 18.709C10.6048 18.6736 10.6137 18.6382 10.6491 18.6205C10.6756 18.6028 10.7021 18.6028 10.7464 18.6117C10.8083 18.6294 10.8791 18.647 10.9675 18.6824C11.4717 18.8682 11.8787 18.9655 12.2767 19.0009C12.5598 19.0274 12.8429 19.0274 13.1171 19.0009C13.471 18.9744 13.816 18.8947 14.1875 18.7532C14.7802 18.532 15.3021 18.1782 15.7356 17.6917C15.9833 17.4174 16.1956 17.099 16.3637 16.7451C16.5671 16.3117 16.6733 15.8251 16.691 15.2767C16.6998 15.0467 16.6821 14.8255 16.6467 14.5601C16.5848 14.1532 16.4787 13.764 16.3017 13.4013Z" fill="currentColor"/>
<path d="M9.47004 16.7614C9.44351 16.6906 9.39043 16.6198 9.31966 16.5579C9.10735 16.3721 8.86851 16.2306 8.57658 16.1156C8.15197 15.9475 7.71851 15.8856 7.28504 15.9298C6.99312 15.9652 6.71889 16.0537 6.46235 16.2041C6.34735 16.2748 6.2412 16.3368 6.16158 16.4429C6.09081 16.5402 6.06428 16.6375 6.08197 16.7437C6.10851 16.8941 6.19697 17.0091 6.3562 17.071C6.46235 17.1152 6.5862 17.1064 6.71004 17.0445C6.75428 17.0268 6.80735 17.0002 6.85158 16.9737C6.89581 16.9471 6.94004 16.9295 6.98428 16.9118C7.22312 16.7968 7.47081 16.7614 7.72735 16.7879C8.02812 16.8233 8.32889 16.9206 8.61197 17.1064L8.64735 17.1329C8.72697 17.1771 8.80658 17.2302 8.8862 17.2745C8.95697 17.3098 9.02774 17.3364 9.09851 17.3364C9.13389 17.3364 9.16043 17.3364 9.19581 17.3275C9.38158 17.2833 9.51428 17.1152 9.52312 16.9295V16.9118L9.51428 16.8675C9.48774 16.8145 9.47889 16.7879 9.47004 16.7614Z" fill="currentColor"/>
<path d="M11.4976 -0.00146484C5.15487 -0.00146484 -0.00244141 5.15584 -0.00244141 11.4985C-0.00244141 17.8412 5.15487 22.9985 11.4976 22.9985C17.8403 22.9985 22.9976 17.8412 22.9976 11.4985C22.9976 5.15584 17.8403 -0.00146484 11.4976 -0.00146484ZM11.4976 22.1139C5.6414 22.1139 0.882174 17.3547 0.882174 11.4985C0.882174 5.64238 5.6414 0.883151 11.4976 0.883151C17.3537 0.883151 22.1129 5.64238 22.1129 11.4985C22.1129 17.3547 17.3537 22.1139 11.4976 22.1139Z" fill="currentColor"/>
</svg>
