<svg viewBox="0 0 24 22" fill="none" xmlns="http://www.w3.org/2000/svg">
<path fill-rule="evenodd" clip-rule="evenodd" d="M1.78238 0H7.41629C8.03873 0 8.40567 0.698547 8.05232 1.21091L2.02837 9.95362C1.74433 10.3661 1.74433 10.9104 2.02837 11.3222L8.05232 20.0649C8.40567 20.5773 8.03873 21.2758 7.41629 21.2758H1.78238C0.798437 21.2758 0 20.478 0 19.4934V10.6379V1.78238C0 0.798437 0.798437 0 1.78238 0ZM14.3107 0.839208L3.42269 9.99575C3.02382 10.3308 3.02382 10.9444 3.42269 11.28L14.3107 20.4366C14.9548 20.9788 15.7703 21.2758 16.6122 21.2758H22.2176C23.2022 21.2758 24 20.4774 24 19.4934V10.6379V1.78238C24 0.798437 23.2022 0 22.2176 0H16.6122C15.7696 0 14.9548 0.296951 14.3107 0.839208ZM6.9226 11.2578C6.91823 11.3191 6.91823 11.3759 6.91823 11.4022C6.91823 11.7477 7.01007 11.9708 7.1894 12.0582C7.44745 12.1895 7.67051 12.2113 8.68084 12.2113C9.31503 12.2113 9.74803 12.1851 9.96672 12.137C10.3953 12.0451 10.5528 11.8089 10.5528 11.271C10.5528 10.6849 10.3341 10.44 9.77865 10.4137C9.62994 10.405 9.2363 10.3918 9.15758 10.3918H8.33094C8.04227 10.3875 8.02478 10.3831 7.9723 10.37C7.84546 10.3394 7.78422 10.2606 7.78422 10.1382C7.78422 9.97197 7.86295 9.91074 8.09913 9.89324C8.23909 9.8845 8.61961 9.87575 8.9039 9.87575C9.47686 9.87575 9.56433 9.91074 9.56433 10.1644H10.4303C10.4303 9.72704 10.3647 9.54772 10.1635 9.41213C9.9536 9.27655 9.71741 9.2503 8.69396 9.2503C8.0554 9.2503 7.71424 9.27217 7.47806 9.33341C7.05819 9.434 6.90948 9.65706 6.90948 10.1819C6.90948 10.5799 7.0057 10.8117 7.21564 10.9211C7.40371 11.0173 7.62677 11.0479 8.16474 11.0479H8.96951C9.34405 11.0515 9.41313 11.0521 9.47806 11.0689C9.49275 11.0726 9.50722 11.0773 9.52497 11.0829C9.61682 11.1135 9.67368 11.201 9.67368 11.3191C9.67368 11.5596 9.55121 11.5903 8.52339 11.5903C8.24347 11.5903 7.99416 11.5728 7.92856 11.5465C7.82359 11.5072 7.80172 11.459 7.79297 11.2578H6.9226ZM10.9315 12.1895H11.815V11.1747H13.9144V10.5143H11.815V9.93261H14.0281V9.27217H10.9315V12.1895ZM14.4293 12.1895H17.0667C17.3772 12.1895 17.5084 12.1807 17.6746 12.1457C17.9939 12.0845 18.2388 11.8133 18.2869 11.4634C18.3132 11.2972 18.3307 10.9954 18.3307 10.733C18.3307 10.593 18.3219 10.3918 18.3132 10.2563C18.2825 9.8845 18.2169 9.7008 18.0551 9.54334C17.8539 9.34215 17.5653 9.27217 16.9486 9.27217H14.4293V12.1895ZM15.3172 11.494V9.99821H16.8217C17.3335 9.99821 17.4384 10.1251 17.4384 10.7374C17.4384 11.2404 17.3816 11.3934 17.1672 11.459C17.0623 11.494 17.0448 11.494 16.8042 11.494H15.3172ZM18.7275 12.1895H19.611V11.4547H20.9712C21.2118 11.4547 21.2818 11.4634 21.3517 11.5115C21.4305 11.5684 21.4611 11.6602 21.4611 11.8264V12.1895H22.3621V11.7302C22.3621 11.4809 22.3271 11.3497 22.2396 11.2491C22.1521 11.1441 22.0384 11.1091 21.7323 11.0916C21.7155 11.0916 21.6783 11.0891 21.6323 11.0859L21.6323 11.0859L21.5879 11.0829C21.9816 11.026 22.1172 10.9823 22.2177 10.8773C22.3446 10.7417 22.4014 10.5318 22.4014 10.2169C22.4014 9.76203 22.2834 9.49523 22.0297 9.37714C21.8591 9.29842 21.6623 9.27217 21.2424 9.27217H18.7275V12.1895ZM19.611 10.7417V9.98947H21.0281C21.2949 9.98947 21.3692 10.0026 21.4348 10.0726C21.4917 10.1338 21.5092 10.2125 21.5092 10.4006C21.5092 10.6893 21.4261 10.7417 20.9975 10.7417H19.611Z" fill="currentColor"/>
</svg>
