<svg  viewBox="0 0 24 24" fill="none" xmlns="http://www.w3.org/2000/svg">
<path d="M17.0536 5.24622L15.6051 0.808105L11.9375 1.99509L14.2494 9.08077L21.73 9.10089L21.7381 5.25829L17.0536 5.24622V5.24622Z" fill="currentColor"/>
<path d="M8.17388 0.808105L6.68763 5.25081H1.88525V9.10089H9.56491L11.9371 1.9974L8.17388 0.808105Z" fill="currentColor"/>
<path d="M1.95272 9.10513L-0.375977 12.2353L3.51485 14.9965L2.02731 19.4646L5.79383 20.6607L8.16811 13.5165L1.94858 9.10107L1.95272 9.10513Z" fill="currentColor"/>
<path d="M23.9998 12.2353L21.7407 9.10107L15.707 13.5165L18.0104 20.6607L21.6643 19.4646L20.2212 14.9965L23.9958 12.2353H23.9998Z" fill="currentColor"/>
<path d="M11.812 16.3887L5.65527 20.7978L7.96047 23.9276L11.812 21.1703L15.6636 23.9276L17.9688 20.7978L11.812 16.3887V16.3887Z" fill="currentColor"/>
</svg>
