<svg xmlns="http://www.w3.org/2000/svg" fill="none" viewBox="0 0 24 24">
  <path fill="currentColor" d="M20.6 8h-.2v.4h.4V8h-.2Zm.6 1.6v.4h.1v-.4Zm.2 1.1h-.2v.4h.2v-.4Zm-.2 1.1v.4h.2v-.4h-.2Zm0 1.4h.1v-.4.4Zm-2.1-8L19 5l-.2-.2v.4h.3Zm.5 1.2v.4h.4v-.4h-.4Zm.8.8v.1-.1Zm-.4.2h-.4V8h.4v-.5Zm.4 1.6v.5h.4V9h-.4Zm-.4-.5h-.4V9h.4v-.4Zm.4 1.6v.5h.4V10h-.4Zm-.4-.5h-.4v.4h.4v-.4Zm.4 1.6v.4h.4v-.4h-.4Zm-.4-.5h-.4v.4h.4v-.4Zm.4 1.6v.4h.4v-.4h-.4Zm-.4-.5h-.4v.4h.4v-.4Zm.4 1.6v.4h.4v-.4h-.4Zm-.4-.6h-.4v.4h.4v-.4Zm.4 1.6v.5h.4v-.5h-.4ZM20 14h-.4v.3h.4V14Zm.4 1.5v.4h.1a7.2 7.2 0 0 0 .2-.4h-.3ZM20 15h-.4v.4h.4V15Zm0 1h-.4v.5h.4V16Zm-.4 1.5.2-.4h-.2v.4ZM18 4.2v.4h.4v-.2l-.2-.2H18Zm.8 1.6v.4h.4v-.4h-.4Zm-.4-.5H18v.4h.4v-.4Zm.4 1.7v.2h.4V7h-.4Zm-.4-.6H18v.4h.4v-.4Zm.4 1.6v.4h.4V8h-.4Zm-.4-.6H18V8h.4v-.5Zm.4 1.6v.5h.4V9h-.4Zm-.4-.5H18V9h.4v-.4Zm.4 1.6v.5h.4V10h-.4Zm-.4-.5H18v.4h.4v-.4Zm.4 1.6v.4h.4v-.4h-.4Zm-.4-.5H18v.4h.4v-.4Zm.4 1.6v.4h.4v-.4h-.4Zm-.4-.5H18v.4h.4v-.4Zm.4 1.6v.4h.4v-.4h-.4Zm-.4-.6H18v.4h.4v-.4Zm.4 1.6v.5h.4v-.5h-.4Zm-.4-.4H18v.3h.4V14Zm.4 1.5v.4h.4v-.4h-.4Zm-.4-.5H18v.4h.4V15Zm.4 1.6v.4h.4v-.4h-.4Zm-.4-.6H18v.5h.4V16Zm.4 1.7v.4h.4v-.4h-.4Zm-.4-.6H18v.4h.4v-.4Zm0 1.1H18v.4h.4v-.4Zm-.4 1.1ZM15.8 2.6h-.2V3h.4v-.4h-.2Zm1.4 1.1V4h.4v-.4h-.4Zm-.4-.6h-.4v.4h.4v-.4Zm.4 1.7v.4h.4v-.4h-.4Zm-.4-.6h-.4v.4h.4v-.4Zm.4 1.6v.4h.4v-.4h-.4Zm-.4-.5h-.4v.4h.4v-.4Zm.4 1.7v.2h.4V7h-.4Zm-.4-.6h-.4v.4h.4v-.4Zm.4 1.6v.4h.4V8h-.4Zm-.4-.6h-.4V8h.4v-.5Zm.4 1.6v.5h.4V9h-.4Zm-.4-.5h-.4V9h.4v-.4Zm.4 1.6v.5h.4V10h-.4Zm-.4-.5h-.4v.4h.4v-.4Zm.4 1.6v.4h.4v-.4h-.4Zm-.4-.5h-.4v.4h.4v-.4Zm.4 1.6v.4h.4v-.4h-.4Zm-.4-.5h-.4v.4h.4v-.4Zm.4 1.6v.4h.4v-.4h-.4Zm-.4-.6h-.4v.4h.4v-.4Zm.4 1.6v.5h.4v-.5h-.4Zm-.4-.4h-.4v.3h.4V14Zm.4 1.5v.4h.4v-.4h-.4Zm-.4-.5h-.4v.4h.4V15Zm.4 1.6v.4h.4v-.4h-.4Zm-.4-.6h-.4v.5h.4V16Zm.4 1.7v.4h.4v-.4h-.4Zm-.4-.6h-.4v.4h.4v-.4Zm.4 1.7v.4h.4v-.4h-.4Zm-.4-.6h-.4v.4h.4v-.4Zm.4 1.8.1-.2h-.1v.1Zm-.4-.7h-.4v.4h.4v-.4Zm-.4 1.2.1-.1h-.1Zm-1.6-18h.4v-.3l-.4-.1v.4Zm-.5-.5-.2-.1H14h.4Zm1.3 1.7V4h.4v-.4h-.4Zm-.4-.6h-.4v.4h.4v-.4Zm.4 1.7v.4h.4v-.4h-.4Zm-.4-.6h-.4v.4h.4v-.4Zm.4 1.6v.4h.4v-.4h-.4Zm-.4-.5h-.4v.4h.4v-.4Zm.4 1.7v.2h.4V7h-.4Zm-.4-.6h-.4v.4h.4v-.4Zm.4 1.6v.4h.4V8h-.4Zm-.4-.6h-.4V8h.4v-.5Zm.4 1.6v.5h.4V9h-.4Zm-.4-.5h-.4V9h.4v-.4Zm.4 1.6v.5h.4V10h-.4Zm-.4-.5h-.4v.4h.4v-.4Zm.4 1.6v.4h.4v-.4h-.4Zm-.4-.5h-.4v.4h.4v-.4Zm.4 1.6v.4h.4v-.4h-.4Zm-.4-.5h-.4v.4h.4v-.4Zm.4 1.6v.4h.4v-.4h-.4Zm-.4-.6h-.4v.4h.4v-.4Zm.4 1.6v.5h.4v-.5h-.4Zm-.4-.4h-.4v.3h.4V14Zm.4 1.5v.4h.4v-.4h-.4Zm-.4-.5h-.4v.4h.4V15Zm.4 1.6v.4h.4v-.4h-.4Zm-.4-.6h-.4v.5h.4V16Zm.4 1.7v.4h.4v-.4h-.4Zm-.4-.6h-.4v.4h.4v-.4Zm.4 1.7v.4h.4v-.4h-.4Zm-.4-.6h-.4v.4h.4v-.4Zm.4 1.6v.4h.4v-.4h-.4Zm-.4-.5h-.4v.4h.4v-.4Zm0 1.1h-.4v.4h.4v-.4ZM14 2.6V3h.4v-.4h-.5Zm-.5-.6h-.4v.5h.4V2Zm.5 1.7V4h.4v-.4h-.5Zm-.5-.6h-.4v.4h.4v-.4Zm.5 1.7v.4h.4v-.4h-.5Zm-.5-.6h-.4v.4h.4v-.4Zm.5 1.6v.4h.4v-.4h-.5Zm-.5-.5h-.4v.4h.4v-.4ZM14 7v.2h.4V7h-.5Zm-.5-.6h-.4v.4h.4v-.4ZM14 8v.4h.4V8h-.5Zm-.5-.6h-.4V8h.4v-.5ZM14 9v.5h.4V9h-.5Zm-.5-.5h-.4V9h.4v-.4Zm.5 1.6v.5h.4V10h-.5Zm-.5-.5h-.4v.4h.4v-.4Zm.5 1.6v.4h.4v-.4h-.5Zm-.5-.5h-.4v.4h.4v-.4Zm.5 1.6v.4h.4v-.4h-.5Zm-.5-.5h-.4v.4h.4v-.4Zm.5 1.6v.4h.4v-.4h-.5Zm-.5-.6h-.4v.4h.4v-.4Zm.5 1.6v.5h.4v-.5h-.5Zm-.5-.4h-.4v.3h.4V14Zm.5 1.5v.4h.4v-.4h-.5Zm-.5-.5h-.4v.4h.4V15Zm.5 1.6v.4h.4v-.4h-.5Zm-.5-.6h-.4v.5h.4V16Zm.5 1.7v.4h.4v-.4h-.5Zm-.5-.6h-.4v.4h.4v-.4Zm.5 1.7v.4h.4v-.4h-.5Zm-.5-.6h-.4v.4h.4v-.4Zm.5 1.6v.4h.4v-.4h-.5Zm-.5-.5h-.4v.4h.4v-.4ZM14 21v.2h.4V21h-.5Zm-.5-.6h-.4v.4h.4v-.4Zm-.4 1.3.4-.1v-.1h-.4v.2Zm-.8-20.2V2h.4v-.3h-.4Zm0 1.1V3h.4v-.4h-.4ZM12 2h-.5v.5h.4V2Zm.3 1.7V4h.4v-.4h-.4Zm-.3-.6h-.5v.4h.4v-.4Zm.3 1.7v.4h.4v-.4h-.4Zm-.3-.6h-.5v.4h.4v-.4Zm.3 1.6v.4h.4v-.4h-.4Zm-.3-.5h-.5v.4h.4v-.4Zm.3 1.7v.2h.4V7h-.4Zm-.3-.6h-.5v.4h.4v-.4Zm.3 1.6v.4h.4V8h-.4Zm-.3-.6h-.5V8h.4v-.5Zm.3 1.6v.5h.4V9h-.4Zm-.3-.5h-.5V9h.4v-.4Zm.3 1.6v.5h.4V10h-.4Zm-.3-.5h-.5v.4h.4v-.4Zm.3 1.6v.4h.4v-.4h-.4Zm-.3-.5h-.5v.4h.4v-.4Zm.3 1.6v.4h.4v-.4h-.4Zm-.3-.5h-.5v.4h.4v-.4Zm.3 1.6v.4h.4v-.4h-.4Zm-.3-.6h-.5v.4h.4v-.4Zm.3 1.6v.5h.4v-.5h-.4ZM12 14h-.5v.3h.4V14Zm.3 1.5v.4h.4v-.4h-.4ZM12 15h-.5v.4h.4V15Zm.3 1.6v.4h.4v-.4h-.4ZM12 16h-.5v.5h.4V16Zm.3 1.7v.4h.4v-.4h-.4Zm-.3-.6h-.5v.4h.4v-.4Zm.3 1.7v.4h.4v-.4h-.4Zm-.3-.6h-.5v.4h.4v-.4Zm.3 1.6v.4h.4v-.4h-.4Zm-.3-.5h-.5v.4h.4v-.4Zm.3 1.7v.2h.4V21h-.4Zm-.3-.6h-.5v.4h.4v-.4Zm-.5 1.4h.4v-.3h-.4v.3Zm-.8-20.3V2h.4v-.4h-.4Zm0 1.1V3h.4v-.4h-.4Zm-.4-.6H10v.5h.4V2Zm.4 1.7V4h.4v-.4h-.4Zm-.4-.6H10v.4h.4v-.4Zm.4 1.7v.4h.4v-.4h-.4Zm-.4-.6H10v.4h.4v-.4Zm.4 1.6v.4h.4v-.4h-.4Zm-.4-.5H10v.4h.4v-.4Zm.4 1.7v.2h.4V7h-.4Zm-.4-.6H10v.4h.4v-.4Zm.4 1.6v.4h.4V8h-.4Zm-.4-.6H10V8h.4v-.5Zm.4 1.6v.5h.4V9h-.4Zm-.4-.5H10V9h.4v-.4Zm.4 1.6v.5h.4V10h-.4Zm-.4-.5H10v.4h.4v-.4Zm.4 1.6v.4h.4v-.4h-.4Zm-.4-.5H10v.4h.4v-.4Zm.4 1.6v.4h.4v-.4h-.4Zm-.4-.5H10v.4h.4v-.4Zm.4 1.6v.4h.4v-.4h-.4Zm-.4-.6H10v.4h.4v-.4Zm.4 1.6v.5h.4v-.5h-.4Zm-.4-.4H10v.3h.4V14Zm.4 1.5v.4h.4v-.4h-.4Zm-.4-.5H10v.4h.4V15Zm.4 1.6v.4h.4v-.4h-.4Zm-.4-.6H10v.5h.4V16Zm.4 1.7v.4h.4v-.4h-.4Zm-.4-.6H10v.4h.4v-.4Zm.4 1.7v.4h.4v-.4h-.4Zm-.4-.6H10v.4h.4v-.4Zm.4 1.6v.4h.4v-.4h-.4Zm-.4-.5H10v.4h.4v-.4Zm.4 1.7v.2h.4V21h-.4Zm-.4-.6H10v.4h.4v-.4Zm-.4 1.4h.4v-.4H10v.3ZM9.1 1.7v.2h.4v-.3h-.2l-.2.1Zm0 .9V3h.4v-.4h-.4ZM8.7 2h-.4v.5h.4V2Zm.4 1.7V4h.4v-.4h-.4Zm-.4-.6h-.4v.4h.4v-.4Zm.4 1.7v.4h.4v-.4h-.4Zm-.4-.6h-.4v.4h.4v-.4Zm.4 1.6v.4h.4v-.4h-.4Zm-.4-.5h-.4v.4h.4v-.4ZM9.1 7v.2h.4V7h-.4Zm-.4-.6h-.4v.4h.4v-.4ZM9.1 8v.4h.4V8h-.4Zm-.4-.6h-.4V8h.4v-.5ZM9.1 9v.5h.4V9h-.4Zm-.4-.5h-.4V9h.4v-.4Zm.4 1.6v.5h.4V10h-.4Zm-.4-.5h-.4v.4h.4v-.4Zm.4 1.6v.4h.4v-.4h-.4Zm-.4-.5h-.4v.4h.4v-.4Zm.4 1.6v.4h.4v-.4h-.4Zm-.4-.5h-.4v.4h.4v-.4Zm.4 1.6v.4h.4v-.4h-.4Zm-.4-.6h-.4v.4h.4v-.4Zm.4 1.6v.5h.4v-.5h-.4Zm-.4-.4h-.4v.3h.4V14Zm.4 1.5v.4h.4v-.4h-.4Zm-.4-.5h-.4v.4h.4V15Zm.4 1.6v.4h.4v-.4h-.4Zm-.4-.6h-.4v.5h.4V16Zm.4 1.7v.4h.4v-.4h-.4Zm-.4-.6h-.4v.4h.4v-.4Zm.4 1.7v.4h.4v-.4h-.4Zm-.4-.6h-.4v.4h.4v-.4Zm.4 1.6v.4h.4v-.4h-.4Zm-.4-.5h-.4v.4h.4v-.4Zm.4 1.7v.2h.4V21h-.4Zm-.4-.6h-.4v.4h.4v-.4Zm0 1.1h-.2.2ZM7.5 2.6V3h.4v-.4h-.4ZM7 2.5v-.1Zm.5 1.2V4h.4v-.4h-.4ZM7 3.1h-.3v.4H7v-.4Zm-1-.2V3h.4v-.2H6Zm1.5 1.9v.4h.4v-.4h-.4ZM7 4.2h-.3v.4H7v-.4Zm.5 1.6v.4h.4v-.4h-.4ZM7 5.3h-.3v.4H7v-.4ZM7.5 7v.2h.4V7h-.4ZM7 6.4h-.3v.4H7v-.4ZM7.5 8v.4h.4V8h-.4ZM7 7.4h-.3V8H7v-.5ZM7.5 9v.5h.4V9h-.4ZM7 8.5h-.3V9H7v-.4Zm.5 1.6v.5h.4V10h-.4ZM7 9.6h-.3v.4H7v-.4Zm.5 1.6v.4h.4v-.4h-.4Zm-.5-.5h-.3v.4H7v-.4Zm.5 1.6v.4h.4v-.4h-.4Zm-.5-.5h-.3v.4H7v-.4Zm.5 1.6v.4h.4v-.4h-.4Zm-.5-.6h-.3v.4H7v-.4Zm.5 1.6v.5h.4v-.5h-.4ZM7 14h-.3v.3H7V14Zm.5 1.5v.4h.4v-.4h-.4ZM7 15h-.3v.4H7V15Zm.5 1.6v.4h.4v-.4h-.4ZM7 16h-.3v.5H7V16Zm.5 1.7v.4h.4v-.4h-.4Zm-.5-.6h-.3v.4H7v-.4Zm.5 1.7v.4h.4v-.4h-.4Zm-.5-.6h-.3v.4H7v-.4Zm.5 1.6v.4h.4v-.4h-.4Zm-.5-.5h-.3v.4H7v-.4Zm.5 1.7v.1l.2.1h.2V21h-.4Zm-.8-.2h.4v-.4h-.4v.4ZM5.9 3.7V4h.4v-.4h-.4Zm-.4-.2v-.2l-.4.2h.4Zm.4 1.3v.4h.4v-.4h-.4Zm-.4-.6H5v.4h.4v-.4Zm.4 1.6v.4h.4v-.4h-.4Zm-.4-.5H5v.4h.4v-.4ZM5.9 7v.2h.4V7h-.4Zm-.4-.6H5v.4h.4v-.4ZM5.9 8v.4h.4V8h-.4Zm-.4-.6H5V8h.4v-.5ZM5.9 9v.5h.4V9h-.4Zm-.4-.5H5V9h.4v-.4Zm.4 1.6v.5h.4V10h-.4Zm-.4-.5H5v.4h.4v-.4Zm.4 1.6v.4h.4v-.4h-.4Zm-.4-.5H5v.4h.4v-.4Zm.4 1.6v.4h.4v-.4h-.4Zm-.4-.5H5v.4h.4v-.4Zm.4 1.6v.4h.4v-.4h-.4Zm-.4-.6H5v.4h.4v-.4Zm.4 1.6v.5h.4v-.5h-.4Zm-.4-.4H5v.3h.4V14Zm.4 1.5v.4h.4v-.4h-.4Zm-.4-.5H5v.4h.4V15Zm.4 1.6v.4h.4v-.4h-.4Zm-.4-.6H5v.5h.4V16Zm.4 1.7v.4h.4v-.4h-.4Zm-.4-.6H5v.4h.4v-.4Zm.4 1.7v.4h.4v-.4h-.4Zm-.4-.6H5v.4h.4v-.4Zm.4 1.6v.4h.4v-.4h-.4Zm-.4-.5H5v.4h.4v-.4ZM4.2 4.8v.4h.5v-.4h-.5Zm.2-.8h.3l-.2.2Zm-.2 1.8v.4h.5v-.4h-.5ZM2.8 6l-.2.2H3v-.4.2Zm1.1-.7h-.5v.4H4v-.4ZM4.2 7v.2h.5V7h-.5Zm-.3-.6h-.5v.4H4v-.4ZM4.2 8v.4h.5V8h-.5Zm-.3-.6h-.5V8H4v-.5ZM4.2 9v.5h.5V9h-.5Zm-.3-.5h-.5V9H4v-.4Zm.3 1.6v.5h.5V10h-.5Zm-.3-.5h-.5v.4H4v-.4Zm.3 1.6v.4h.5v-.4h-.5Zm-.3-.5h-.5v.4H4v-.4Zm.3 1.6v.4h.5v-.4h-.5Zm-.3-.5h-.5v.4H4v-.4Zm.3 1.6v.4h.5v-.4h-.5Zm-.3-.6h-.5v.4H4v-.4Zm.3 1.6v.5h.5v-.5h-.5Zm-.3-.4h-.5v.3H4V14Zm.3 1.5v.4h.5v-.4h-.5Zm-.3-.5h-.5v.4H4V15Zm.3 1.6v.4h.5v-.4h-.5Zm-.3-.6h-.5v.5H4V16Zm.3 1.7v.4h.5v-.4h-.5Zm-.3-.6h-.5v.4H4v-.4Zm.3 1.7v.2l.2.2h.3v-.4h-.5Zm-.4-.2v-.4h-.3c0 .2.2.3.3.4ZM2.6 7v.2H3V7h-.4Zm0 1v.4H3V8h-.4Zm-.8-.2h.4v-.4H2l-.2.4ZM2.6 9v.5H3V9h-.4Zm-1.2.3-.1.2h.1V9v.2Zm.8-.8h-.4V9h.4v-.4Zm.4 1.6v.5H3V10h-.4Zm-.4-.5h-.4v.4h.4v-.4Zm.4 1.6v.4H3v-.4h-.4Zm-.4-.5h-.4v.4h.4v-.4Zm.4 1.6v.4H3v-.4h-.4Zm-.4-.5h-.4v.4h.4v-.4Zm.4 1.6v.4H3v-.4h-.4Zm-.4-.6h-.4v.4h.4v-.4Zm.4 1.6v.5H3v-.5h-.4Zm-.4-.4h-.4v.3h.4V14Zm.4 1.5v.4H3v-.4h-.4Zm-.4-.5h-.4v.4h.4V15Zm.4 1.6v.4H3v-.4h-.4Zm-.4-.2V16h-.1l.1.3Zm-1-6.3v.5h.2V10h-.2ZM1 11.2v.4h.4v-.4h-.3Zm.1 1.1v.4h.3v-.4h-.3Zm.1 1.1v.4h.2v-.4h-.2Z"/>
  <path fill="#000" d="M16.7 4a9.2 9.2 0 0 1-13 12.3A9.2 9.2 0 1 0 16.7 4Z"/>
  <path fill="currentColor" d="M10.7 5.2V4l.1-.3V1.1l.1-.5v-1c.1-.1 0-.2 0-.4.2-.5.1-.7.1-1.2v-.4l.1-.6v-1h.2v.2l.1.4v2c0 .1 0 0 0 0v.2s.1.1 0 .2l.1.6V1l.1.6v1.1c0 .1.1.3 0 .4l.1 1v1.4a218.7 218.7 0 0 0 .1.7c0 .4 0 .8.2 1l.5 1.2.5.7.6.7.6.5.7.4.7.3.5.1c.4.2.8.2 1.3.3h3.4l1.7.2H25l.6.1h.6c.1 0 .2 0 .2.2l-.1.1h-1.1l-.4.1H23c-.2.1-.3.1-.4 0h-.1l-1 .1-1.5.1h-2s-.1.1-.2 0l-.9.1c-.2.1-.6 0-.9.2l-.5.2-.5.2-.5.3-.7.6-.2.2a17.3 17.3 0 0 1-.4.3l-.5.8-.4.8-.3 1-.1.8V20l-.2 1.2v10.4l-.1.1V35l-.1.7v2a501.7 501.7 0 0 1-.2-.8l-.1-.2v-3.2l-.1-.3v-7s-.1 0 0-.1c0-.3-.1-.5 0-.8l-.1-.6V21l-.1-1v-2l-.1-.7-.1-.5-.2-.6V16l-.2-.3-.2-.4c0-.2-.2-.3-.3-.5a9 9 0 0 0-.4-.6l-.4-.4h-.2c-.1-.3-.4-.4-.6-.6l-.6-.3-.4-.2-.4-.2-.8-.1-.8-.1H3.3l-.1-.1H1L.8 12h-1l-.7-.1h-1.3l-.1-.2v-.1l.2-.1H0l.6-.1h1.3l.6-.1h.6l.4-.1h1.8l.7-.1.6-.2h.3l.3-.2.5-.2.8-.5.5-.5.8-1 .5-1 .3-.8.1-.9v-.7Z"/>
</svg>